<svg xmlns="http://www.w3.org/2000/svg" viewBox="0 0 900 1400" width="900" height="1400">
  <defs>
    <!-- plastique PET vide (col, epaule au-dessus du liquide) -->
    <linearGradient id="vimt-pet" x1="0" y1="0" x2="1" y2="0">
      <stop offset="0" stop-color="#f0e4fb"/>
      <stop offset=".2" stop-color="#dcc4f2"/>
      <stop offset=".5" stop-color="#c3a0e6"/>
      <stop offset=".8" stop-color="#9a6cc8"/>
      <stop offset="1" stop-color="#6f3fa0"/>
    </linearGradient>
    <!-- liquide pourpre profond -->
    <linearGradient id="vimt-liquid" x1="0" y1="0" x2="1" y2="0">
      <stop offset="0" stop-color="#8f3cc8"/>
      <stop offset=".16" stop-color="#68289e"/>
      <stop offset=".42" stop-color="#4e1c7c"/>
      <stop offset=".62" stop-color="#3c1462"/>
      <stop offset=".82" stop-color="#2a0c44"/>
      <stop offset="1" stop-color="#1c0630"/>
    </linearGradient>
    <radialGradient id="vimt-glow" cx=".38" cy=".3" r=".9">
      <stop offset="0" stop-color="#d073e8" stop-opacity=".35"/>
      <stop offset=".45" stop-color="#a24fd8" stop-opacity=".12"/>
      <stop offset="1" stop-color="#a24fd8" stop-opacity="0"/>
    </radialGradient>
    <!-- bouchon violet fonce -->
    <linearGradient id="vimt-cap" x1="0" y1="0" x2="1" y2="0">
      <stop offset="0" stop-color="#7c50b0"/>
      <stop offset=".28" stop-color="#4e2a84"/>
      <stop offset=".62" stop-color="#38195f"/>
      <stop offset="1" stop-color="#220c40"/>
    </linearGradient>
    <!-- etiquette violette -->
    <linearGradient id="vimt-label" x1="0" y1="0" x2="1" y2="0">
      <stop offset="0" stop-color="#b06ae8"/>
      <stop offset=".22" stop-color="#8a44d0"/>
      <stop offset=".55" stop-color="#7436bc"/>
      <stop offset=".82" stop-color="#5d28a2"/>
      <stop offset="1" stop-color="#471b80"/>
    </linearGradient>
    <radialGradient id="vimt-fruitglow" cx=".5" cy=".5" r=".5">
      <stop offset="0" stop-color="#f0dcff" stop-opacity=".38"/>
      <stop offset=".7" stop-color="#f0dcff" stop-opacity=".12"/>
      <stop offset="1" stop-color="#f0dcff" stop-opacity="0"/>
    </radialGradient>
    <linearGradient id="vimt-shine" x1="0" y1="0" x2="0" y2="1">
      <stop offset="0" stop-color="#ffffff" stop-opacity=".85"/>
      <stop offset=".55" stop-color="#ffffff" stop-opacity=".4"/>
      <stop offset="1" stop-color="#ffffff" stop-opacity=".1"/>
    </linearGradient>
    <!-- fruits -->
    <radialGradient id="vimt-grape" cx=".35" cy=".28" r="1">
      <stop offset="0" stop-color="#e2b8f8"/>
      <stop offset=".45" stop-color="#a865da"/>
      <stop offset="1" stop-color="#5e2b90"/>
    </radialGradient>
    <radialGradient id="vimt-rasp" cx=".35" cy=".3" r="1">
      <stop offset="0" stop-color="#ff9dbf"/>
      <stop offset=".5" stop-color="#ea5590"/>
      <stop offset="1" stop-color="#b8306a"/>
    </radialGradient>
    <radialGradient id="vimt-cassis" cx=".35" cy=".28" r="1">
      <stop offset="0" stop-color="#7a4aae"/>
      <stop offset=".45" stop-color="#3f1d68"/>
      <stop offset="1" stop-color="#1d0a34"/>
    </radialGradient>
  </defs>

  <!-- ombre au sol -->
  <ellipse cx="450" cy="1330" rx="260" ry="38" fill="#000" opacity=".35"/>

  <!-- ===== SILHOUETTE PET 500ml : epaules rondes, cintrage a la taille, base stable ===== -->
  <path id="vimt-body" d="M412 190 L412 240
           C412 262 400 275 382 286
           C328 318 291 382 289 462
           L288 648
           C288 726 303 758 303 822
           L303 946
           C303 1008 288 1042 288 1118
           L288 1204
           Q288 1290 404 1290
           L496 1290
           Q612 1290 612 1204
           L612 1118
           C612 1042 597 1008 597 946
           L597 822
           C597 758 612 726 612 648
           L612 462
           C609 382 572 318 518 286
           C500 275 488 262 488 240
           L488 190 Z"
        fill="url(#vimt-pet)"/>

  <!-- ===== LIQUIDE pourpre profond, surface sous l'epaule, visible au-dessus/dessous de l'etiquette ===== -->
  <path d="M338 350
           C310 384 296 420 295 466
           L294 648
           C294 724 309 758 309 822
           L309 946
           C309 1006 294 1042 294 1118
           L294 1202
           Q294 1284 404 1284
           L496 1284
           Q606 1284 606 1202
           L606 1118
           C606 1042 591 1006 591 946
           L591 822
           C591 758 606 724 606 648
           L606 466
           C605 420 590 384 562 350
           Q450 314 338 350 Z"
        fill="url(#vimt-liquid)" opacity=".98"/>
  <!-- surface du liquide -->
  <path d="M338 350 Q450 314 562 350 Q450 388 338 350 Z" fill="#c084ee" opacity=".75"/>
  <path d="M352 350 Q450 322 548 350 Q450 372 352 350 Z" fill="#e2b8f8" opacity=".4"/>
  <!-- lueur gourmande -->
  <path d="M338 350 C310 384 296 420 295 466 L294 648 C294 724 309 758 309 822 L309 946
           C309 1006 294 1042 294 1118 L294 1202 Q294 1284 404 1284 L496 1284
           Q606 1284 606 1202 L606 1118 C606 1042 591 1006 591 946 L591 822
           C591 758 606 724 606 648 L606 466 C605 420 590 384 562 350 Q450 314 338 350 Z"
        fill="url(#vimt-glow)"/>
  <!-- profondeur au fond -->
  <path d="M294 1150 Q300 1284 450 1284 Q600 1284 606 1150 Q450 1240 294 1150 Z"
        fill="#1c0830" opacity=".4"/>

  <!-- bulles fines -->
  <g fill="#ffffff">
    <circle cx="372" cy="560" r="6" opacity=".4"/>
    <circle cx="448" cy="470" r="4.5" opacity=".38"/>
    <circle cx="528" cy="540" r="7" opacity=".42"/>
    <circle cx="492" cy="420" r="4" opacity=".34"/>
    <circle cx="396" cy="640" r="5" opacity=".34"/>
    <circle cx="512" cy="628" r="5.5" opacity=".36"/>
    <circle cx="540" cy="1140" r="7" opacity=".4"/>
    <circle cx="378" cy="1190" r="5" opacity=".32"/>
  </g>

  <!-- ===== BOUCHON violet fonce crante ===== -->
  <path d="M398 176 Q450 168 502 176 L502 190 L398 190 Z" fill="#2a1149"/>
  <rect x="384" y="112" width="132" height="70" rx="10" fill="url(#vimt-cap)"/>
  <path d="M384 122 Q450 106 516 122 L516 132 Q450 118 384 132 Z" fill="#8a5cbe" opacity=".8"/>
  <g stroke="#180736" stroke-width="4.5" opacity=".5">
    <line x1="399" y1="118" x2="399" y2="178"/><line x1="417" y1="116" x2="417" y2="180"/>
    <line x1="435" y1="115" x2="435" y2="181"/><line x1="453" y1="115" x2="453" y2="181"/>
    <line x1="471" y1="115" x2="471" y2="181"/><line x1="489" y1="116" x2="489" y2="180"/>
    <line x1="505" y1="119" x2="505" y2="177"/>
  </g>
  <rect x="388" y="114" width="26" height="66" rx="10" fill="#fff" opacity=".28"/>
  <!-- bague d'inviolabilite -->
  <rect x="392" y="182" width="116" height="14" rx="7" fill="#31135a"/>
  <rect x="392" y="182" width="24" height="14" rx="7" fill="#fff" opacity=".18"/>

  <!-- col : filet et reflet plastique -->
  <path d="M410 240 Q450 250 490 240 L490 252 Q450 262 410 252 Z" fill="#8a5cbe" opacity=".55"/>

  <!-- ===== ETIQUETTE VIOLETTE enveloppante (suit la courbure) ===== -->
  <g>
    <path d="M293 704 Q450 676 607 704
             C607 752 597 772 597 826
             L597 944
             C597 998 606 1018 606 1054
             Q450 1082 294 1054
             C294 1018 303 998 303 944
             L303 826
             C303 772 293 752 293 704 Z"
          fill="url(#vimt-label)"/>
    <!-- lumiere/ombre de courbure sur l'etiquette -->
    <path d="M293 704 Q340 696 366 693 C362 810 362 940 366 1064 Q338 1061 294 1054
             C294 1018 303 998 303 944 L303 826 C303 772 293 752 293 704 Z"
          fill="#ffffff" opacity=".1"/>
    <path d="M540 682 Q580 690 607 704 C607 752 597 772 597 826 L597 944
             C597 998 606 1018 606 1054 Q578 1059 544 1063 C548 940 548 808 540 682 Z"
          fill="#1c0830" opacity=".22"/>
    <!-- ombre portee de l'etiquette sur le liquide -->
    <path d="M293 692 Q450 664 607 692 L607 704 Q450 676 293 704 Z" fill="#12031f" opacity=".45"/>
    <path d="M294 1054 Q450 1082 606 1054 L606 1066 Q450 1094 294 1066 Z" fill="#12031f" opacity=".45"/>
    <!-- liseres clairs haut/bas -->
    <path d="M293 704 Q450 676 607 704 L607 716 Q450 688 293 716 Z" fill="#f0e0fc" opacity=".95"/>
    <path d="M294 1042 Q450 1070 606 1042 L606 1054 Q450 1082 294 1054 Z" fill="#f0e0fc" opacity=".95"/>

    <!-- VIMTO blanc epais, penche dynamique, leger contour -->
    <g transform="rotate(-8 450 826)">
      <text x="450" y="864" text-anchor="middle" font-family="'Space Grotesk',sans-serif"
            font-size="118" font-weight="700" letter-spacing="2" fill="#ffffff"
            stroke="#2a0f4a" stroke-width="10" stroke-linejoin="round" paint-order="stroke">VIMTO</text>
      <text x="450" y="864" text-anchor="middle" font-family="'Space Grotesk',sans-serif"
            font-size="118" font-weight="700" letter-spacing="2" fill="#ffffff">VIMTO</text>
    </g>
    <!-- DEPUIS 1908 discret -->
    <g transform="rotate(-8 450 906)">
      <text x="450" y="914" text-anchor="middle" font-family="'Space Grotesk',sans-serif"
            font-size="24" font-weight="600" letter-spacing="8" fill="#f4e8ff">DEPUIS 1908</text>
    </g>

    <!-- ===== LES 3 FRUITS SIGNATURE SUR L'ETIQUETTE ===== -->
    <ellipse cx="450" cy="985" rx="150" ry="66" fill="url(#vimt-fruitglow)"/>
    <!-- framboise (gauche) -->
    <g transform="translate(348 986) scale(1.12)">
      <path d="M-4 -34 q-12 -12 -26 -12 q8 14 22 16 Z" fill="#4d9152"/>
      <path d="M4 -35 q4 -16 18 -20 q-2 16 -12 22 Z" fill="#5fa864"/>
      <circle cx="-16" cy="-18" r="8.5" fill="url(#vimt-rasp)"/>
      <circle cx="0" cy="-22" r="8.5" fill="url(#vimt-rasp)"/>
      <circle cx="16" cy="-18" r="8.5" fill="url(#vimt-rasp)"/>
      <circle cx="-22" cy="-2" r="8.5" fill="url(#vimt-rasp)"/>
      <circle cx="-7" cy="-5" r="8.5" fill="url(#vimt-rasp)"/>
      <circle cx="8" cy="-5" r="8.5" fill="url(#vimt-rasp)"/>
      <circle cx="22" cy="-2" r="8.5" fill="url(#vimt-rasp)"/>
      <circle cx="-15" cy="13" r="8" fill="url(#vimt-rasp)"/>
      <circle cx="0" cy="12" r="8" fill="url(#vimt-rasp)"/>
      <circle cx="15" cy="13" r="8" fill="url(#vimt-rasp)"/>
      <circle cx="-7" cy="26" r="7.5" fill="url(#vimt-rasp)"/>
      <circle cx="8" cy="26" r="7.5" fill="url(#vimt-rasp)"/>
      <circle cx="0" cy="37" r="7" fill="url(#vimt-rasp)"/>
      <circle cx="-3" cy="-23" r="2.6" fill="#ffd6e6" opacity=".85"/>
      <circle cx="-19" cy="-4" r="2.4" fill="#ffd6e6" opacity=".7"/>
      <circle cx="11" cy="10" r="2.2" fill="#ffd6e6" opacity=".7"/>
    </g>
    <!-- grappe de raisin (centre) -->
    <g transform="translate(452 988) scale(1.12)">
      <path d="M0 -46 q-3 -14 -14 -20" stroke="#5fa864" stroke-width="4.5" fill="none" stroke-linecap="round"/>
      <path d="M2 -44 q14 -12 28 -8 q-8 12 -24 14 Z" fill="#4d9152"/>
      <circle cx="-14" cy="-28" r="12" fill="url(#vimt-grape)"/>
      <circle cx="12" cy="-30" r="12" fill="url(#vimt-grape)"/>
      <circle cx="-24" cy="-6" r="12" fill="url(#vimt-grape)"/>
      <circle cx="0" cy="-8" r="12.5" fill="url(#vimt-grape)"/>
      <circle cx="24" cy="-6" r="12" fill="url(#vimt-grape)"/>
      <circle cx="-12" cy="14" r="12" fill="url(#vimt-grape)"/>
      <circle cx="13" cy="14" r="12" fill="url(#vimt-grape)"/>
      <circle cx="0" cy="34" r="11.5" fill="url(#vimt-grape)"/>
      <circle cx="-17" cy="-31" r="3.4" fill="#f2ddfc" opacity=".85"/>
      <circle cx="-3" cy="-11" r="3.2" fill="#f2ddfc" opacity=".75"/>
      <circle cx="-15" cy="11" r="2.8" fill="#f2ddfc" opacity=".7"/>
    </g>
    <!-- cassis (droite) -->
    <g transform="translate(552 990) scale(1.12)">
      <path d="M-8 -36 q2 -14 14 -20" stroke="#4a2a12" stroke-width="4" fill="none" stroke-linecap="round"/>
      <path d="M6 -40 q4 -12 16 -14 q-2 12 -12 16 Z" fill="#4d9152"/>
      <circle cx="-14" cy="-14" r="15" fill="url(#vimt-cassis)" stroke="#c9a4ea" stroke-width="1.6" stroke-opacity=".6"/>
      <path d="M-17 0 l3 5 l3 -5 l-3 -2 Z" fill="#120524"/>
      <circle cx="16" cy="-8" r="13.5" fill="url(#vimt-cassis)" stroke="#c9a4ea" stroke-width="1.6" stroke-opacity=".6"/>
      <path d="M13 5 l3 4.5 l3 -4.5 l-3 -2 Z" fill="#120524"/>
      <circle cx="-2" cy="16" r="14" fill="url(#vimt-cassis)" stroke="#c9a4ea" stroke-width="1.6" stroke-opacity=".6"/>
      <path d="M-5 29 l3 5 l3 -5 l-3 -2 Z" fill="#120524"/>
      <ellipse cx="-19" cy="-19" rx="4.5" ry="3.2" fill="#c9a4ea" opacity=".8" transform="rotate(-28 -19 -19)"/>
      <ellipse cx="12" cy="-13" rx="4" ry="2.8" fill="#c9a4ea" opacity=".75" transform="rotate(-28 12 -13)"/>
      <ellipse cx="-7" cy="11" rx="4" ry="2.8" fill="#c9a4ea" opacity=".7" transform="rotate(-28 -7 11)"/>
    </g>
  </g>

  <!-- ===== REFLETS PLASTIQUE : lumiere haut-gauche ===== -->
  <path d="M312 380 Q296 700 300 1160 Q303 1240 330 1262 Q314 1050 316 830 Q318 540 334 386 Z"
        fill="url(#vimt-shine)" opacity=".55"/>
  <rect x="416" y="200" width="11" height="38" rx="5.5" fill="#fff" opacity=".6"/>
  <path d="M330 320 Q366 292 392 268 L414 268 Q386 300 348 330 Z" fill="#fff" opacity=".4"/>
  <!-- bord droit assombri + rim light -->
  <path d="M598 400 Q616 740 606 1160 Q602 1244 572 1264 Q592 1050 592 830 Q592 560 584 406 Z"
        fill="#160528" opacity=".4"/>
  <path d="M606 430 Q613 760 607 1140 Q606 1200 594 1234 Q604 1020 604 800 Q604 560 600 434 Z"
        fill="#e8d4fa" opacity=".45"/>

  <!-- ===== CONDENSATION ===== -->
  <g fill="#f3e9ff">
    <circle cx="336" cy="500" r="5.5" opacity=".6"/>
    <circle cx="574" cy="540" r="4.5" opacity=".55"/>
    <circle cx="322" cy="620" r="6" opacity=".58"/>
    <circle cx="586" cy="640" r="4.5" opacity=".5"/>
    <circle cx="322" cy="1110" r="6" opacity=".58"/>
    <circle cx="580" cy="1150" r="5" opacity=".52"/>
    <circle cx="392" cy="1240" r="4.5" opacity=".48"/>
    <circle cx="498" cy="330" r="3.8" opacity=".55"/>
    <path d="M590 880 q5 13 0 21 q-7 -6 -3 -19 Z" opacity=".55"/>
    <path d="M312 560 q-5 15 0 24 q8 -6 3 -22 Z" opacity=".6"/>
  </g>
</svg>
